<svg xmlns="http://www.w3.org/2000/svg" width="571" height="448" style="shape-rendering:geometricprecision;text-rendering:geometricprecision;image-rendering:optimizequality;fill-rule:evenodd;clip-rule:evenodd"><path style="opacity:.932" fill="#fefffe" d="M111.5.5c24.357-.368 48.69.132 73 1.5 16.725 2.25 32.725 7.083 48 14.5a20.512 20.512 0 0 1 3 8 404.605 404.605 0 0 0-7 70 5981.729 5981.729 0 0 1 24-5.5c4-.667 8-.667 12 0 10.29 5.61 19.123 13.111 26.5 22.5 21.562 30.446 40.062 62.779 55.5 97a3080.71 3080.71 0 0 0 112-167c-19.669-.167-39.336 0-59 .5a4834.01 4834.01 0 0 0-81 3.5c-3.875 1.04-6.708 3.372-8.5 7a382.41 382.41 0 0 0-8 39c-7.086 1.146-14.253 1.312-21.5.5-2.422-2.701-2.589-5.535-.5-8.5l1-74 1.5-1.5c49.349-.894 98.682-.394 148 1.5a1452.028 1452.028 0 0 1 128-1 74.08 74.08 0 0 1 .5 21 8468.4 8468.4 0 0 0-105 148 17934.46 17934.46 0 0 0-50.5 83.5l-13 27.5a435.95 435.95 0 0 0-1 40 2768.545 2768.545 0 0 0 117-3.5 1538.98 1538.98 0 0 0 17-3.5 17.703 17.703 0 0 0 4-6.5 847.195 847.195 0 0 0 11-45.5h22a415.965 415.965 0 0 1-1.5 32 1356.081 1356.081 0 0 1-6.5 61c-49.334.167-98.668 0-148-.5-5.074-.96-10.074-1.127-15-.5a431.214 431.214 0 0 0 1 35.5 36.077 36.077 0 0 0 2.5 11.5c1.32 2.154 3.153 3.654 5.5 4.5a221.557 221.557 0 0 0 30 3.5 4.457 4.457 0 0 1 1.5 2c.81 6.582.643 13.082-.5 19.5a10033.14 10033.14 0 0 0-156 .5c-.33-6.7.003-13.366 1-20l2-2a219.45 219.45 0 0 0 30-3.5c2.416-.661 4.082-2.161 5-4.5a364.854 364.854 0 0 0 3.5-20c.5-8.66.666-17.327.5-26a985.248 985.248 0 0 1-62.5-1 88.739 88.739 0 0 1 .5-23 920.647 920.647 0 0 0 48-66c-22.725-43.347-48.725-84.347-78-123a295.962 295.962 0 0 0-21-20 132.136 132.136 0 0 0-15-1.5 38.026 38.026 0 0 1-6.5-2.5l-.5-10.5c.075-4.023.742-7.856 2-11.5a230.328 230.328 0 0 1 26-5 26.596 26.596 0 0 0-3.5-2 1896.477 1896.477 0 0 0-2.5-37 10.256 10.256 0 0 1-1.5-4c-12.777-13.833-28.61-22-47.5-24.5a265.205 265.205 0 0 0-38.5.5c-29.674 7.508-45.841 26.508-48.5 57a102.885 102.885 0 0 0 6 24c5.672 9.918 13.839 16.918 24.5 21 10.464 2.5 20.964 5.167 31.5 8a803.903 803.903 0 0 1 70 12.5c14.187 4.737 26.687 12.237 37.5 22.5 6.97 8.39 12.137 17.89 15.5 28.5 12.839 55.331-3.161 99.997-48 134-20.718 12.354-43.051 20.02-67 23-41.89 3.978-82.223-2.022-121-18a77.02 77.02 0 0 1-11-7 30.989 30.989 0 0 1-1-6.5c3.366-26.571 5.7-53.071 7-79.5a83.878 83.878 0 0 1 22 .5 802.277 802.277 0 0 0 3 42c6.734 11.562 16.234 20.228 28.5 26 23.047 11.841 47.38 15.507 73 11 23.065-5.082 39.065-18.415 48-40a201.515 201.515 0 0 0 5.5-26c-.547-15.945-6.881-28.945-19-39-7.966-5.188-16.633-8.855-26-11a771.897 771.897 0 0 0-54-9.5A298.745 298.745 0 0 1 43 189.5c-18.112-11.244-29.78-27.244-35-48-7.591-33.589-2.425-64.922 15.5-94C39.972 26.092 61.305 11.925 87.5 5a5948.77 5948.77 0 0 1 24-4.5Z"/></svg>