<svg xmlns="http://www.w3.org/2000/svg" width="356" height="282" style="shape-rendering:geometricprecision;text-rendering:geometricprecision;image-rendering:optimizequality;fill-rule:evenodd;clip-rule:evenodd"><path style="opacity:1" d="M71.5 3.5c25.523-2.56 50.189.773 74 10a11.012 11.012 0 0 1 2 5.5 213.6 213.6 0 0 0-4 43.5l19-4c4.394 1.365 8.394 3.532 12 6.5A121.364 121.364 0 0 1 191 85.5a1671.702 1671.702 0 0 1 26.5 48 2256.326 2256.326 0 0 0 71-104.5 1172.8 1172.8 0 0 0-89 2c-2.439.774-4.273 2.274-5.5 4.5l-5 24c-4.079 1.13-8.245 1.296-12.5.5a4.932 4.932 0 0 1-1-2.5c.645-16.216 1.312-32.382 2-48.5 57.347.169 114.68.002 172-.5a84.9 84.9 0 0 1-.5 13 1683.135 1683.135 0 0 0-95 141 302.632 302.632 0 0 0-10 21c-.5 8.327-.666 16.66-.5 25a2447.87 2447.87 0 0 1 60-1.5 114.014 114.014 0 0 0 24-3c2.438-2.295 3.938-5.128 4.5-8.5a578.296 578.296 0 0 1 5.5-23 43.117 43.117 0 0 1 13-1 1986.354 1986.354 0 0 1-5 56 2740.207 2740.207 0 0 1-102 1 124.067 124.067 0 0 0 2.5 30l2.5 2.5a169.925 169.925 0 0 0 19 2l1.5 1.5c.793 3.923.626 7.756-.5 11.5l-19 .5c-25.327-.567-50.66-.734-76-.5-1.126-3.744-1.293-7.577-.5-11.5l1.5-1.5a169.925 169.925 0 0 0 19-2l2.5-2.5a131.074 131.074 0 0 0 2.5-30h-39a98.432 98.432 0 0 1 .5-14 926.118 926.118 0 0 0 30.5-41.5A719.868 719.868 0 0 0 141 95.5 119.132 119.132 0 0 0 127.5 83a772.912 772.912 0 0 1-13-1.5 43.116 43.116 0 0 1 1-13 391.302 391.302 0 0 1 21-4.5 24.939 24.939 0 0 0-7-.5 159.322 159.322 0 0 0-2.5-26c-8.177-8.956-18.343-14.123-30.5-15.5-17.378-3.367-32.545.8-45.5 12.5-10.788 14.818-11.122 29.817-1 45 6.86 5.51 14.693 9.01 23.5 10.5a682.7 682.7 0 0 1 55 11c19.648 7.771 30.148 22.271 31.5 43.5-.269 48.946-24.769 76.78-73.5 83.5-28.67 3.306-55.837-1.528-81.5-14.5a9.623 9.623 0 0 1-1.5-4.5 406.808 406.808 0 0 0 5-49c4.255-.796 8.422-.629 12.5.5.298 8.697.965 17.364 2 26 6.05 9.04 14.217 15.54 24.5 19.5 11.984 4.248 24.318 5.581 37 4 22.463-4.877 34.463-18.877 36-42-1.027-16.697-9.693-27.03-26-31a1062.49 1062.49 0 0 1-49-10c-27.565-7.254-41.231-25.254-41-54 .536-30.096 14.536-51.096 42-63 8.262-2.98 16.595-5.147 25-6.5Z"/></svg>